<?xml version="1.0" encoding="UTF-8" standalone="no"?>
<!DOCTYPE svg PUBLIC "-//W3C//DTD SVG 1.1//EN" "http://www.w3.org/Graphics/SVG/1.1/DTD/svg11.dtd">
<svg width="100%" height="100%" viewBox="0 0 2048 2048" version="1.1" xmlns="http://www.w3.org/2000/svg" xmlns:xlink="http://www.w3.org/1999/xlink" xml:space="preserve" xmlns:serif="http://www.serif.com/" style="fill-rule:evenodd;clip-rule:evenodd;stroke-linejoin:round;stroke-miterlimit:2;">
    <g transform="matrix(1.008104,0,0,1.008104,-14.267643,26.433125)">
        <path d="M687.421,1327.669L687.421,-26.221L2045.689,-26.221L2045.689,650.023L1365.067,650.023C991.064,650.023 687.421,953.666 687.421,1327.669Z" style="fill:url(#_Linear1);"/>
    </g>
    <g transform="matrix(1.008104,0,0,1.008104,-14.267643,26.433125)">
        <path d="M1365.067,2005.315C991.064,2005.315 687.421,1701.672 687.421,1327.669C687.421,953.666 991.064,650.023 1365.067,650.023L1365.067,2005.315Z" style="fill:url(#_Linear2);"/>
    </g>
    <g transform="matrix(1.445192,0,0,1.445192,-982.541569,-1663.946504)">
        <path d="M679.869,1151.367L1149.513,1151.367C1149.513,1410.571 939.073,1621.011 679.869,1621.011L679.869,1151.367Z" style="fill:url(#_Radial3);"/>
    </g>
    <defs>
        <linearGradient id="_Linear1" x1="0" y1="0" x2="1" y2="0" gradientUnits="userSpaceOnUse" gradientTransform="matrix(1358.267946,0,0,1353.889896,687.420925,650.724321)"><stop offset="0" style="stop-color:rgb(2,123,253);stop-opacity:1"/><stop offset="1" style="stop-color:rgb(2,208,221);stop-opacity:1"/></linearGradient>
        <linearGradient id="_Linear2" x1="0" y1="0" x2="1" y2="0" gradientUnits="userSpaceOnUse" gradientTransform="matrix(677.646031,0,0,1355.292063,687.420925,1327.669269)"><stop offset="0" style="stop-color:rgb(3,129,226);stop-opacity:1"/><stop offset="1" style="stop-color:rgb(2,203,217);stop-opacity:1"/></linearGradient>
        <radialGradient id="_Radial3" cx="0" cy="0" r="1" gradientUnits="userSpaceOnUse" gradientTransform="matrix(469.643162,0,0,469.643162,679.869457,1386.189056)"><stop offset="0" style="stop-color:rgb(12,61,175);stop-opacity:1"/><stop offset="1" style="stop-color:rgb(5,59,158);stop-opacity:1"/></radialGradient>
    </defs>
</svg>
